<?xml version="1.0" encoding="UTF-8"?>
<!DOCTYPE svg PUBLIC "-//W3C//DTD SVG 1.1//EN" "http://www.w3.org/Graphics/SVG/1.1/DTD/svg11.dtd">
<!-- Creator: CorelDRAW -->
<svg xmlns="http://www.w3.org/2000/svg" xml:space="preserve" width="62.7945mm" height="29.1042mm" style="shape-rendering:geometricPrecision; text-rendering:geometricPrecision; image-rendering:optimizeQuality; fill-rule:evenodd; clip-rule:evenodd"
viewBox="0 0 19.8845 9.21612"
 xmlns:xlink="http://www.w3.org/1999/xlink">
 <defs>
  <style type="text/css">
   <![CDATA[
    .fil0 {fill:#D5E1A1}
    .fil1 {fill:#38420E;fill-rule:nonzero}
   ]]>
  </style>
 </defs>
 <g id="Camada_x0020_1">
  <metadata id="CorelCorpID_0Corel-Layer"/>
  <rect class="fil0" width="19.8845" height="9.21612" rx="0.837849" ry="0.837849"/>
  <path class="fil1" d="M6.00434 5.09138c-0.152376,0.261751 -0.338319,0.392816 -0.55789,0.392816 -0.186766,0 -0.345697,-0.086448 -0.476762,-0.258869 -0.131065,-0.172864 -0.196614,-0.377648 -0.196614,-0.614826 0,-0.237146 0.0655485,-0.442785 0.196614,-0.617264 0.131065,-0.174099 0.289997,-0.261339 0.476762,-0.261339 0.203169,0 0.379295,0.115517 0.528409,0.346109l-0.144998 0.103231c-0.113047,-0.186354 -0.240851,-0.279769 -0.383411,-0.279769 -0.142528,0 -0.259692,0.0704567 -0.351429,0.210958 -0.0917679,0.140913 -0.13762,0.30678 -0.13762,0.498073 0,0.191294 0.0458523,0.356368 0.13762,0.495635 0.0917362,0.138855 0.2089,0.208489 0.351429,0.208489 0.154023,0 0.286735,-0.103231 0.398136,-0.30925l0.159755 0.0860047z"/>
  <path id="1" class="fil1" d="M6.37052 4.6105c0,0.186386 0.0512038,0.350225 0.153611,0.49193 0.102376,0.141325 0.226506,0.212193 0.372328,0.212193 0.145822,0 0.26992,-0.0708684 0.372328,-0.212193 0.102408,-0.141705 0.15358,-0.305545 0.15358,-0.49193 0,-0.188001 -0.0515838,-0.353487 -0.154815,-0.495604 -0.103231,-0.142148 -0.226918,-0.213428 -0.371093,-0.213428 -0.144175,0 -0.267894,0.07128 -0.371125,0.213428 -0.103199,0.142117 -0.154815,0.307603 -0.154815,0.495604zm0.0233378 0.612356c-0.144998,-0.174479 -0.217482,-0.378471 -0.217482,-0.612356 0,-0.233885 0.0724833,-0.438668 0.217482,-0.614826 0.144998,-0.175714 0.312543,-0.263777 0.502602,-0.263777 0.190059,0 0.357572,0.088063 0.50257,0.263777 0.144998,0.176158 0.217513,0.380941 0.217513,0.614826 0,0.233885 -0.072515,0.437877 -0.217513,0.612356 -0.144998,0.174099 -0.312511,0.261339 -0.50257,0.261339 -0.190059,0 -0.357603,-0.0872397 -0.502602,-0.261339z"/>
  <polygon id="12" class="fil1" points="7.91389,5.44486 7.91389,3.76875 8.11297,3.76875 8.69543,5.20157 9.27543,3.76875 9.47695,3.76875 9.47695,5.44486 9.29262,5.44486 9.29262,4.20869 8.79373,5.44486 8.59711,5.44486 8.09821,4.21113 8.09821,5.44486 "/>
  <path id="123" class="fil1" d="M9.8628 5.44486l0 -1.67611 0.532083 0c0.099526,0 0.191706,0.0168146 0.277299,0.0499688 0.0856247,0.0335976 0.157696,0.0884746 0.217102,0.165075 0.0593736,0.0765999 0.0892979,0.169159 0.0892979,0.27771 0,0.108551 -0.029101,0.20073 -0.0876513,0.276507 -0.058582,0.0757766 -0.130274,0.130242 -0.214632,0.16384 -0.0848014,0.0331542 -0.176569,0.0499688 -0.275684,0.0499688l-0.353487 0 0 0.693041 -0.184327 0zm0.184327 -1.52373l0 0.678316 0.351429 0c0.111432,0 0.20358,-0.029101 0.276507,-0.0876513 0.072895,-0.0581703 0.109342,-0.141737 0.109342,-0.250288 0,-0.108551 -0.0364475,-0.192497 -0.109342,-0.251491 -0.0729266,-0.0593736 -0.165075,-0.0888863 -0.276507,-0.0888863l-0.351429 0z"/>
  <path id="1234" class="fil1" d="M11.2317 5.44486l0 -1.67611 0.532083 0c0.099526,0 0.191706,0.0168146 0.277299,0.0503805 0.0856247,0.0331859 0.157696,0.0884746 0.217102,0.165486 0.0593736,0.0765999 0.0892979,0.169159 0.0892979,0.276887 0,0.12413 -0.0356558,0.225715 -0.107316,0.304341 -0.0716917,0.0782465 -0.163428,0.1323 -0.276095,0.161813l0.412069 0.717202 -0.203992 0 -0.397312 -0.693041 -0.00243828 0 -0.356368 0 0 0.693041 -0.184327 0zm0.184327 -1.52373l0 0.678316 0.351429 0c0.111432,0 0.20358,-0.029101 0.276507,-0.0876513 0.072895,-0.0581703 0.109342,-0.141737 0.109342,-0.250288 0,-0.108551 -0.0364475,-0.192497 -0.109342,-0.251491 -0.0729266,-0.0593736 -0.165075,-0.0888863 -0.276507,-0.0888863l-0.351429 0z"/>
  <path id="12345" class="fil1" d="M13.2715 3.77369l0.609506 1.67117 -0.196614 0 -0.172041 -0.469416 -0.678284 0 -0.169603 0.469416 -0.196582 0 0.607036 -1.67117 0 -0.00493989 0.199052 0 -0.00246994 0.00493989zm-0.0982911 0.270332l-0.282618 0.779045 0.567707 0 -0.285088 -0.779045z"/>
  <path id="123456" class="fil1" d="M14.0752 5.44486l0 -1.67611 0.532083 0c0.099526,0 0.191706,0.0168146 0.277299,0.0503805 0.0856247,0.0331859 0.157696,0.0884746 0.217102,0.165486 0.0593736,0.0765999 0.0892979,0.169159 0.0892979,0.276887 0,0.12413 -0.0356558,0.225715 -0.107316,0.304341 -0.0716917,0.0782465 -0.163428,0.1323 -0.276095,0.161813l0.412069 0.717202 -0.203992 0 -0.397312 -0.693041 -0.00243828 0 -0.356368 0 0 0.693041 -0.184327 0zm0.184327 -1.52373l0 0.678316 0.351429 0c0.111432,0 0.20358,-0.029101 0.276507,-0.0876513 0.072895,-0.0581703 0.109342,-0.141737 0.109342,-0.250288 0,-0.108551 -0.0364475,-0.192497 -0.109342,-0.251491 -0.0729266,-0.0593736 -0.165075,-0.0888863 -0.276507,-0.0888863l-0.351429 0z"/>
 </g>
</svg>
