<?xml version="1.0" encoding="UTF-8"?>
<!DOCTYPE svg PUBLIC "-//W3C//DTD SVG 1.1//EN" "http://www.w3.org/Graphics/SVG/1.1/DTD/svg11.dtd">
<!-- Creator: CorelDRAW -->
<svg xmlns="http://www.w3.org/2000/svg" xml:space="preserve" width="62.7944mm" height="29.1042mm" style="shape-rendering:geometricPrecision; text-rendering:geometricPrecision; image-rendering:optimizeQuality; fill-rule:evenodd; clip-rule:evenodd"
viewBox="0 0 23.7735 11.0186"
 xmlns:xlink="http://www.w3.org/1999/xlink">
 <defs>
  <style type="text/css">
   <![CDATA[
    .fil0 {fill:#999999}
    .fil2 {fill:#FEFEFE}
    .fil1 {fill:#FEFEFE;fill-rule:nonzero}
   ]]>
  </style>
 </defs>
 <g id="Camada_x0020_1">
  <metadata id="CorelCorpID_0Corel-Layer"/>
  <path class="fil0" d="M1.00172 0l21.7701 0c0.553124,0 1.00172,0.448595 1.00172,1.00172l0 9.01521c0,0.553086 -0.448595,1.00168 -1.00172,1.00168l-21.7701 3.78593e-005c-0.553086,-3.78593e-005 -1.00168,-0.448633 -1.00168,-1.00176l-3.78593e-005 -9.01517c3.78593e-005,-0.553124 0.448633,-1.00172 1.00176,-1.00172z"/>
  <path class="fil1" d="M5.60829 5.39669c-0.173093,-0.0464533 -0.30454,-0.107369 -0.394267,-0.182709 -0.0897644,-0.0749235 -0.134628,-0.178279 -0.134628,-0.30931 0,-0.145039 0.0456583,-0.255626 0.136596,-0.332177 0.0909759,-0.0765136 0.22,-0.1146 0.38749,-0.1146 0.203115,0 0.377419,0.0945725 0.522875,0.283301l-0.133038 0.112972c-0.113805,-0.153444 -0.243625,-0.230374 -0.389837,-0.230374 -0.123421,0 -0.211558,0.0224506 -0.264447,0.0673138 -0.0528894,0.0448633 -0.0793531,0.115812 -0.0793531,0.213564 0,0.0368749 0.00601963,0.0696989 0.018021,0.0993806 0.0120393,0.0296438 0.0248357,0.053268 0.038465,0.0709104 0.0136293,0.0176046 0.0364585,0.034452 0.0685253,0.0504664 0.0320668,0.0160523 0.0572811,0.0276751 0.0757186,0.0348684 0.0184375,0.00723112 0.0500878,0.0176424 0.094989,0.0312718 0.0448633,0.0132129 0.0757186,0.0224127 0.0917331,0.0272208 0.163476,0.0561075 0.269672,0.0985856 0.318927,0.127434 0.138262,0.0817382 0.207582,0.207923 0.207582,0.379047 0,0.142616 -0.0537223,0.252824 -0.160675,0.330133 -0.10699,0.0777251 -0.253657,0.116607 -0.440758,0.116607 -0.105362,0 -0.207545,-0.0304389 -0.306925,-0.0913545 -0.0989642,-0.0609156 -0.182292,-0.143032 -0.249606,-0.247221l0.141821 -0.100971c0.0480813,0.0801481 0.109792,0.145834 0.184715,0.196717 0.07534,0.0512993 0.151854,0.0769301 0.229995,0.0769301 0.14466,0 0.250818,-0.0228292 0.318927,-0.0684875 0.0681467,-0.0456962 0.102182,-0.11619 0.102182,-0.212353 0,-0.0941939 -0.0292274,-0.163476 -0.0877578,-0.207582 -0.0584926,-0.0440682 -0.157457,-0.0845398 -0.297271,-0.120998z"/>
  <polygon id="_1" class="fil1" points="6.4577,6.13355 6.4577,4.49397 7.37609,4.49397 7.37609,4.64303 6.63802,4.64303 6.63802,5.16711 7.215,5.16711 7.215,5.31616 6.63802,5.31616 6.63802,5.98449 7.38328,5.98449 7.38328,6.13355 "/>
  <polygon id="_12" class="fil1" points="7.66696,6.13355 7.66696,4.49397 7.84728,4.49397 7.84728,5.98449 8.48915,5.98449 8.48915,6.13355 "/>
  <polygon id="_123" class="fil1" points="8.71517,6.13355 8.71517,4.49397 9.63352,4.49397 9.63352,4.64303 8.89546,4.64303 8.89546,5.16711 9.47243,5.16711 9.47243,5.31616 8.89546,5.31616 8.89546,5.98449 9.64068,5.98449 9.64068,6.13355 "/>
  <path id="_1234" class="fil1" d="M11.0447 5.78778c-0.149052,0.256005 -0.330966,0.384234 -0.545742,0.384234 -0.182709,0 -0.338159,-0.0845398 -0.466389,-0.253241 -0.128229,-0.16908 -0.192325,-0.369431 -0.192325,-0.601395 0,-0.232002 0.0640958,-0.433148 0.192325,-0.603818 0.128229,-0.170291 0.28368,-0.255664 0.466389,-0.255664 0.198723,0 0.371021,0.11301 0.516893,0.338576l-0.141859 0.100971c-0.110587,-0.182292 -0.235598,-0.273647 -0.375034,-0.273647 -0.139436,0 -0.254036,0.0689039 -0.343762,0.206333 -0.0897644,0.137846 -0.134628,0.300111 -0.134628,0.487249 0,0.187101 0.0448633,0.34857 0.134628,0.484826 0.0897265,0.135801 0.204327,0.20391 0.343762,0.20391 0.150642,0 0.280462,-0.100971 0.389458,-0.302496l0.156283 0.0841612z"/>
  <polygon id="_12345" class="fil1" points="11.5063,4.65983 11.5063,5.96765 11.5929,5.96765 11.5929,6.13355 11.2395,6.13355 11.2395,5.96765 11.326,5.96765 11.326,4.65983 11.2395,4.65983 11.2395,4.49397 11.5929,4.49397 11.5929,4.65983 "/>
  <path id="_123456" class="fil1" d="M12.0112 5.31737c0,0.182292 0.05005,0.342551 0.150226,0.481192 0.100176,0.138262 0.22159,0.207545 0.364244,0.207545 0.142616,0 0.264031,-0.0692825 0.364206,-0.207545 0.100176,-0.138641 0.150264,-0.298899 0.150264,-0.481192 0,-0.18392 -0.0505043,-0.345807 -0.151475,-0.484826 -0.100971,-0.139057 -0.221969,-0.208756 -0.362995,-0.208756 -0.141064,0 -0.262062,0.0696989 -0.363033,0.208756 -0.100971,0.139019 -0.151437,0.300906 -0.151437,0.484826zm0.0228292 0.59901c-0.141859,-0.170708 -0.212769,-0.370226 -0.212769,-0.59901 0,-0.228784 0.0709104,-0.429135 0.212769,-0.601433 0.141821,-0.171881 0.305714,-0.258049 0.491641,-0.258049 0.185889,0 0.349782,0.0861677 0.491603,0.258049 0.141859,0.172298 0.212769,0.372649 0.212769,0.601433 0,0.228784 -0.0709104,0.428302 -0.212769,0.59901 -0.141821,0.170291 -0.305714,0.255626 -0.491603,0.255626 -0.185927,0 -0.34982,-0.0853348 -0.491641,-0.255626z"/>
  <polygon id="_1234567" class="fil1" points="13.5209,6.13355 13.5209,4.49397 13.7012,4.49397 14.4753,5.83783 14.4753,4.49397 14.6556,4.49397 14.6556,6.13355 14.4753,6.13355 13.7012,4.79446 13.7012,6.13355 "/>
  <polygon id="_12345678" class="fil1" points="15.0331,6.13355 15.0331,4.49397 15.9515,4.49397 15.9515,4.64303 15.2134,4.64303 15.2134,5.16711 15.7904,5.16711 15.7904,5.31616 15.2134,5.31616 15.2134,5.98449 15.9587,5.98449 15.9587,6.13355 "/>
  <path id="_123456789" class="fil1" d="M17.3771 4.49878l0.596208 1.63476 -0.192325 0 -0.168285 -0.459195 -0.663522 0 -0.165862 0.459195 -0.192325 0 0.593785 -1.63476 0 -0.00480813 0.194748 0 -0.00242299 0.00480813zm-0.0961626 0.264447l-0.276449 0.76207 0.55532 0 -0.278872 -0.76207z"/>
  <path id="_12345678910" class="fil1" d="M18.6392 5.39669c-0.173093,-0.0464533 -0.30454,-0.107369 -0.394267,-0.182709 -0.0897644,-0.0749235 -0.134628,-0.178279 -0.134628,-0.30931 0,-0.145039 0.0456583,-0.255626 0.136596,-0.332177 0.0909759,-0.0765136 0.22,-0.1146 0.38749,-0.1146 0.203115,0 0.377419,0.0945725 0.522875,0.283301l-0.133038 0.112972c-0.113805,-0.153444 -0.243625,-0.230374 -0.389837,-0.230374 -0.123421,0 -0.211558,0.0224506 -0.264447,0.0673138 -0.0528894,0.0448633 -0.0793531,0.115812 -0.0793531,0.213564 0,0.0368749 0.00601963,0.0696989 0.018021,0.0993806 0.0120393,0.0296438 0.0248357,0.053268 0.038465,0.0709104 0.0136293,0.0176046 0.0364585,0.034452 0.0685253,0.0504664 0.0320668,0.0160523 0.0572811,0.0276751 0.0757186,0.0348684 0.0184375,0.00723112 0.0500878,0.0176424 0.094989,0.0312718 0.0448633,0.0132129 0.0757186,0.0224127 0.0917331,0.0272208 0.163476,0.0561075 0.269672,0.0985856 0.318927,0.127434 0.138262,0.0817382 0.207582,0.207923 0.207582,0.379047 0,0.142616 -0.0537223,0.252824 -0.160675,0.330133 -0.10699,0.0777251 -0.253657,0.116607 -0.440758,0.116607 -0.105362,0 -0.207545,-0.0304389 -0.306925,-0.0913545 -0.0989642,-0.0609156 -0.182292,-0.143032 -0.249606,-0.247221l0.141821 -0.100971c0.0480813,0.0801481 0.109792,0.145834 0.184715,0.196717 0.07534,0.0512993 0.151854,0.0769301 0.229995,0.0769301 0.14466,0 0.250818,-0.0228292 0.318927,-0.0684875 0.0681467,-0.0456962 0.102182,-0.11619 0.102182,-0.212353 0,-0.0941939 -0.0292274,-0.163476 -0.0877578,-0.207582 -0.0584926,-0.0440682 -0.157457,-0.0845398 -0.297271,-0.120998z"/>
  <path id="_1234567891011" class="fil1" d="M4.57257 8.46912c0,0.182292 0.05005,0.342551 0.150226,0.481192 0.100176,0.138262 0.22159,0.207545 0.364244,0.207545 0.142616,0 0.264031,-0.0692825 0.364206,-0.207545 0.100176,-0.138641 0.150264,-0.298899 0.150264,-0.481192 0,-0.18392 -0.0505043,-0.345807 -0.151475,-0.484826 -0.100971,-0.139057 -0.221969,-0.208756 -0.362995,-0.208756 -0.141064,0 -0.262062,0.0696989 -0.363033,0.208756 -0.100971,0.139019 -0.151437,0.300906 -0.151437,0.484826zm0.0228292 0.59901c-0.141859,-0.170708 -0.212769,-0.370226 -0.212769,-0.59901 0,-0.228784 0.0709104,-0.429135 0.212769,-0.601433 0.141821,-0.171881 0.305714,-0.258049 0.491641,-0.258049 0.185889,0 0.349782,0.0861677 0.491603,0.258049 0.141859,0.172298 0.212769,0.372649 0.212769,0.601433 0,0.228784 -0.0709104,0.428302 -0.212769,0.59901 -0.141821,0.170291 -0.305714,0.255626 -0.491603,0.255626 -0.185927,0 -0.34982,-0.0853348 -0.491641,-0.255626z"/>
  <path id="_123456789101112" class="fil1" d="M6.08228 9.28526l0 -1.63957 0.520452 0c0.0973741,0 0.187517,0.0164309 0.271262,0.0488763 0.0837447,0.0328619 0.154277,0.0865463 0.212353,0.16147 0.058114,0.0749235 0.0873792,0.165483 0.0873792,0.271678 0,0.106157 -0.0284702,0.196338 -0.0857513,0.270429 -0.057319,0.0741285 -0.127434,0.127434 -0.209968,0.160296 -0.0829497,0.0324454 -0.172676,0.0488763 -0.269672,0.0488763l-0.345769 0 0 0.677946 -0.180286 0zm0.180286 -1.49048l0 0.663522 0.3438 0c0.108959,0 0.199102,-0.0284323 0.270429,-0.0857513 0.0713269,-0.0569025 0.10699,-0.138641 0.10699,-0.244798 0,-0.106195 -0.0356634,-0.188312 -0.10699,-0.24601 -0.0713269,-0.058114 -0.16147,-0.0869628 -0.270429,-0.0869628l-0.3438 0z"/>
  <path id="_12345678910111213" class="fil1" d="M7.93864 9.32137c-0.169496,-0.020444 -0.311733,-0.11301 -0.42675,-0.277281 -0.114979,-0.163893 -0.17226,-0.355423 -0.17226,-0.57459 0,-0.232797 0.0640958,-0.434322 0.192704,-0.604613 0.128608,-0.170291 0.284096,-0.255247 0.466389,-0.255247 0.201146,0 0.374239,0.11301 0.520073,0.338576l-0.141821 0.100971c-0.110587,-0.182292 -0.236015,-0.273647 -0.376662,-0.273647 -0.140609,0 -0.256005,0.0689039 -0.345769,0.206333 -0.0897644,0.137846 -0.134628,0.300111 -0.134628,0.487628 0,0.187138 0.0448633,0.348608 0.134628,0.484826 0.0897644,0.135839 0.204743,0.203948 0.344179,0.203948 0.150642,0 0.280462,-0.100971 0.389458,-0.302496l0.156283 0.0841233c-0.133038,0.228784 -0.294129,0.355423 -0.483236,0.379047l-0.0648908 0.129819c0.0881364,0 0.154239,0.0144244 0.198307,0.0432732 0.0441061,0.0288488 0.0661402,0.0601205 0.0661402,0.0937775 0,0.120203 -0.164309,0.180286 -0.492852,0.180286l0 -0.0648908c0.0773465,0 0.151475,-0.00923767 0.222764,-0.0276751 0.0709483,-0.0184375 0.106612,-0.0428567 0.106612,-0.0732956 0,-0.0160523 -0.00564103,-0.0284702 -0.0168474,-0.0372914 -0.0112063,-0.00882121 -0.0356634,-0.0160145 -0.0733334,-0.0216177 -0.0376321,-0.00560317 -0.093361,-0.00840476 -0.167073,-0.00840476l0.0985856 -0.211558z"/>
  <path id="_1234567891011121314" class="fil1" d="M9.56579 7.38813c0.0432732,0 0.0793152,-0.0168474 0.108164,-0.0500878 0.0288488,-0.0336569 0.0464912,-0.0697368 0.0528894,-0.108202l0.110587 0c-0.00961626,0.0781416 -0.0404716,0.151891 -0.092566,0.220795 -0.0520944,0.0689039 -0.111761,0.103356 -0.179074,0.103356 -0.0416831,0 -0.0793531,-0.0132129 -0.11301,-0.0396387 -0.0336569,-0.0264636 -0.0640958,-0.0525108 -0.0913545,-0.0789366 -0.0272587,-0.0264636 -0.0528894,-0.0396765 -0.0769301,-0.0396765 -0.0432732,0 -0.0797317,0.0168095 -0.109375,0.0508829 -0.0296438,0.0336569 -0.0477027,0.0693204 -0.0541009,0.107369l-0.108164 0c0.00961626,-0.0781037 0.0404337,-0.151854 0.0925281,-0.220758 0.0520944,-0.0689039 0.111798,-0.103394 0.179112,-0.103394 0.0416831,0 0.0793531,0.0128343 0.11301,0.0388815 0.0336569,0.0260472 0.0640958,0.052473 0.0913545,0.0793531 0.0272208,0.0268422 0.0528894,0.0400551 0.0769301,0.0400551zm-0.658714 1.081c0,0.182292 0.05005,0.342551 0.150226,0.481192 0.100176,0.138262 0.22159,0.207545 0.364244,0.207545 0.142616,0 0.264031,-0.0692825 0.364206,-0.207545 0.100176,-0.138641 0.150264,-0.298899 0.150264,-0.481192 0,-0.18392 -0.0505043,-0.345807 -0.151475,-0.484826 -0.100971,-0.139057 -0.221969,-0.208756 -0.362995,-0.208756 -0.141064,0 -0.262062,0.0696989 -0.363033,0.208756 -0.100971,0.139019 -0.151437,0.300906 -0.151437,0.484826zm0.0228292 0.59901c-0.141859,-0.170708 -0.212769,-0.370226 -0.212769,-0.59901 0,-0.228784 0.0709104,-0.429135 0.212769,-0.601433 0.141821,-0.171881 0.305714,-0.258049 0.491641,-0.258049 0.185889,0 0.349782,0.0861677 0.491603,0.258049 0.141859,0.172298 0.212769,0.372649 0.212769,0.601433 0,0.228784 -0.0709104,0.428302 -0.212769,0.59901 -0.141821,0.170291 -0.305714,0.255626 -0.491603,0.255626 -0.185927,0 -0.34982,-0.0853348 -0.491641,-0.255626z"/>
  <polygon id="_123456789101112131415" class="fil1" points="10.4168,9.28526 10.4168,7.64572 11.3352,7.64572 11.3352,7.79481 10.5972,7.79481 10.5972,8.3189 11.1741,8.3189 11.1741,8.46791 10.5972,8.46791 10.5972,9.13624 11.3424,9.13624 11.3424,9.28526 "/>
  <path id="_12345678910111213141516" class="fil1" d="M12.1021 8.54844c-0.173093,-0.0464533 -0.30454,-0.107369 -0.394267,-0.182709 -0.0897644,-0.0749235 -0.134628,-0.178279 -0.134628,-0.30931 0,-0.145039 0.0456583,-0.255626 0.136596,-0.332177 0.0909759,-0.0765136 0.22,-0.1146 0.38749,-0.1146 0.203115,0 0.377419,0.0945725 0.522875,0.283301l-0.133038 0.112972c-0.113805,-0.153444 -0.243625,-0.230374 -0.389837,-0.230374 -0.123421,0 -0.211558,0.0224506 -0.264447,0.0673138 -0.0528894,0.0448633 -0.0793531,0.115812 -0.0793531,0.213564 0,0.0368749 0.00601963,0.0696989 0.018021,0.0993806 0.0120393,0.0296438 0.0248357,0.053268 0.038465,0.0709104 0.0136293,0.0176046 0.0364585,0.034452 0.0685253,0.0504664 0.0320668,0.0160523 0.0572811,0.0276751 0.0757186,0.0348684 0.0184375,0.00723112 0.0500878,0.0176424 0.094989,0.0312718 0.0448633,0.0132129 0.0757186,0.0224127 0.0917331,0.0272208 0.163476,0.0561075 0.269672,0.0985856 0.318927,0.127434 0.138262,0.0817382 0.207582,0.207923 0.207582,0.379047 0,0.142616 -0.0537223,0.252824 -0.160675,0.330133 -0.10699,0.0777251 -0.253657,0.116607 -0.440758,0.116607 -0.105362,0 -0.207545,-0.0304389 -0.306925,-0.0913545 -0.0989642,-0.0609156 -0.182292,-0.143032 -0.249606,-0.247221l0.141821 -0.100971c0.0480813,0.0801481 0.109792,0.145834 0.184715,0.196717 0.07534,0.0512993 0.151854,0.0769301 0.229995,0.0769301 0.14466,0 0.250818,-0.0228292 0.318927,-0.0684875 0.0681467,-0.0456962 0.102182,-0.11619 0.102182,-0.212353 0,-0.0941939 -0.0292274,-0.163476 -0.0877578,-0.207582 -0.0584926,-0.0440682 -0.157457,-0.0845398 -0.297271,-0.120998z"/>
  <path id="_1234567891011121314151617" class="fil1" d="M14.0863 7.65053l0.596208 1.63476 -0.192325 0 -0.168285 -0.459195 -0.663522 0 -0.165862 0.459195 -0.192325 0 0.593785 -1.63476 0 -0.00480813 0.194748 0 -0.00242299 0.00480813zm-0.0961626 0.264447l-0.276449 0.76207 0.55532 0 -0.278872 -0.76207z"/>
  <path id="_123456789101112131415161718" class="fil1" d="M15.9927 8.93949c-0.149052,0.256005 -0.330966,0.384234 -0.545742,0.384234 -0.182709,0 -0.338159,-0.0845398 -0.466389,-0.253241 -0.128229,-0.16908 -0.192325,-0.369431 -0.192325,-0.601395 0,-0.232002 0.0640958,-0.433148 0.192325,-0.603818 0.128229,-0.170291 0.28368,-0.255664 0.466389,-0.255664 0.198723,0 0.371021,0.11301 0.516893,0.338576l-0.141859 0.100971c-0.110587,-0.182292 -0.235598,-0.273647 -0.375034,-0.273647 -0.139436,0 -0.254036,0.0689039 -0.343762,0.206333 -0.0897644,0.137846 -0.134628,0.300111 -0.134628,0.487249 0,0.187101 0.0448633,0.34857 0.134628,0.484826 0.0897265,0.135801 0.204327,0.20391 0.343762,0.20391 0.150642,0 0.280462,-0.100971 0.389458,-0.302496l0.156283 0.0841612z"/>
  <polygon id="_12345678910111213141516171819" class="fil1" points="16.4543,7.81158 16.4543,9.11943 16.5409,9.11943 16.5409,9.28526 16.1875,9.28526 16.1875,9.11943 16.274,9.11943 16.274,7.81158 16.1875,7.81158 16.1875,7.64572 16.5409,7.64572 16.5409,7.81158 "/>
  <polygon id="_1234567891011121314151617181920" class="fil1" points="16.8582,9.28526 16.8582,7.64572 17.0529,7.64572 17.6227,9.04727 18.1901,7.64572 18.3872,7.64572 18.3872,9.28526 18.2069,9.28526 18.2069,8.07607 17.7189,9.28526 17.5266,9.28526 17.0385,8.07845 17.0385,9.28526 "/>
  <path id="_123456789101112131415161718192021" class="fil1" d="M19.3633 7.65053l0.596208 1.63476 -0.192325 0 -0.168285 -0.459195 -0.663522 0 -0.165862 0.459195 -0.192325 0 0.593785 -1.63476 0 -0.00480813 0.194748 0 -0.00242299 0.00480813zm-0.0961626 0.264447l-0.276449 0.76207 0.55532 0 -0.278872 -0.76207z"/>
  <polygon class="fil2" points="11.5901,0.961512 9.8918,2.05955 10.7005,2.05955 10.6888,3.52924 12.468,3.52924 12.4528,2.09184 13.1807,2.10801 "/>
 </g>
</svg>
